<?xml version="1.0" encoding="utf-8"?>
<svg viewBox="2.6667 620.5764 42.275 54.2584" width="42.275" height="54.2584" xmlns="http://www.w3.org/2000/svg">
  <path d="M20.8291 664.58C20.8337 664.58 20.8384 664.594 20.8384 664.622C20.843 664.818 20.8477 665.009 20.8523 665.206C20.8801 665.056 20.9079 664.907 20.9404 664.752C20.9172 664.468 20.6947 664.612 20.8291 664.58Z" fill="#FEFEFE"/>
  <path d="M32.9957 648.606C32.9907 648.611 32.9806 648.611 32.9756 648.616C32.9806 648.621 32.9907 648.627 32.9957 648.632C32.9907 648.627 32.9957 648.616 32.9957 648.606Z" fill="#FEFEFE"/>
  <path d="M25.3307 628.999V629.003H25.3446C25.34 629.003 25.3354 628.999 25.3307 628.999Z" fill="#FEFEFE"/>
  <path d="M31.8444 668.377C31.9046 667.7 31.8722 667.013 31.9556 666.34C32.1411 664.86 31.9649 663.347 32.3497 661.885C32.5398 661.128 31.9324 660.241 32.7113 659.577L32.5166 658.933C32.4345 658.765 32.3937 658.58 32.3978 658.393C32.4018 658.206 32.4505 658.023 32.5398 657.859C32.494 656.56 32.5716 655.261 32.7716 653.977C32.8411 652.193 32.9153 650.409 32.9848 648.62C32.9802 648.615 32.9709 648.611 32.9663 648.606C29.1786 650.358 25.6089 647.905 25.0016 644.963C24.6029 643.029 24.8161 641.203 26.3136 639.727C26.5639 639.48 26.7772 639.195 27.009 638.924C27.6209 635.229 27.1944 631.838 24.0604 629.195C24.5287 628.924 24.9506 629.078 25.3307 629.008V629.003C21.4874 628.032 16.8236 630.68 15.2798 634.725C14.7997 635.92 14.583 637.206 14.6446 638.494C18.4555 636.715 21.8722 638.84 22.8134 642.077C23.7916 645.444 21.1861 649.008 17.723 649.059C16.7314 649.064 15.7448 648.916 14.7976 648.62C14.8672 650.479 14.9383 652.338 15.0109 654.197C15.1807 655.41 15.2536 656.634 15.2288 657.859C15.2381 658.148 15.2473 658.438 15.2566 658.727C15.2473 658.919 15.2381 659.11 15.2288 659.307C15.4699 660.48 15.6141 661.672 15.66 662.87C15.6515 662.84 15.6454 662.808 15.6414 662.777C15.646 662.81 15.6553 662.838 15.66 662.87C15.7527 664.902 15.8083 666.938 15.952 668.97C16.0123 669.811 15.7109 670.231 14.9414 670.446C14.0327 670.703 13.1379 671.011 12.2385 671.301C13.4253 671.451 14.6223 671.504 15.8176 671.46C17.1017 671.432 17.6859 670.857 17.8111 669.573C17.8899 668.755 17.9594 667.938 18.0336 667.121C18.117 665.64 18.2005 664.155 18.2839 662.674H18.4647V666.901C18.4879 667.541 18.4972 668.185 18.5389 668.825C18.7243 671.81 18.8124 671.791 15.8593 672.394C15.7917 672.415 15.7264 672.443 15.6646 672.478C15.8407 672.595 16.0169 672.711 16.1931 672.833C16.2198 672.837 16.2453 672.847 16.2677 672.863C16.2902 672.878 16.309 672.898 16.3229 672.922C17.0275 672.926 17.7369 672.987 18.4323 672.922C19.6979 672.8 20.296 672.118 20.3887 670.852C20.4443 670.04 20.5278 669.227 20.5973 668.414C20.5252 667.341 20.6096 666.263 20.8476 665.215C20.843 665.019 20.8384 664.827 20.8337 664.631C20.8337 664.603 20.8245 664.584 20.8245 664.589C20.69 664.622 20.9125 664.477 20.9357 664.762C20.9589 664.636 20.9867 664.51 21.0099 664.384V669.278C21.0238 669.853 21.0424 670.423 21.0516 670.997C21.0748 673.076 20.945 673.262 18.9793 673.856C18.4369 674.019 17.8713 674.117 17.3335 674.299C16.9441 674.435 16.448 674.36 16.0818 674.822C17.6812 674.762 19.1787 674.944 20.6668 674.701C22.206 674.449 22.818 673.823 23.1332 672.31C23.365 671.198 23.4624 670.054 23.8843 668.928C23.9321 669.005 23.9724 669.086 24.0048 669.171C24.2181 670.222 24.4313 671.277 24.6353 672.328C24.9227 673.8 25.5161 674.425 26.9997 674.687C28.5342 674.953 30.0873 674.771 31.6774 674.808C31.4503 674.416 31.0933 674.482 30.8059 674.397C29.8184 674.108 28.8124 673.86 27.8434 673.524C27.1388 673.276 26.6334 672.823 26.6427 671.95C26.6659 669.559 26.652 667.167 26.652 664.776H26.9394C27.0414 666.275 27.1619 667.77 27.2407 669.269C27.4215 672.735 27.8295 673.113 31.2834 672.922C31.4781 672.595 31.9556 672.851 32.1364 672.501C31.3065 672.497 30.5833 672.095 29.823 671.838C29.618 671.767 29.4421 671.629 29.323 671.447C29.2039 671.264 29.1482 671.047 29.1647 670.829C29.2018 668.372 29.109 665.906 29.4382 663.459C29.6376 665.514 29.7952 667.574 29.9528 669.629C30.027 670.591 30.4581 671.343 31.4595 671.408C32.8132 671.502 34.1716 671.432 35.53 671.432C34.8237 671.101 34.0918 670.829 33.3417 670.619C31.682 670.082 31.6913 670.077 31.8443 668.377L31.8444 668.377ZM21.404 633.333C21.401 633.662 21.2701 633.976 21.0395 634.208C20.8089 634.441 20.4969 634.572 20.1708 634.575C19.443 634.589 18.8959 634.169 18.882 633.216C18.8851 633.053 18.9212 632.892 18.988 632.743C19.0547 632.594 19.1509 632.46 19.2705 632.349C19.3902 632.239 19.5308 632.154 19.684 632.1C19.8371 632.046 19.9996 632.024 20.1615 632.035C21.0285 632.021 21.4179 632.609 21.404 633.333ZM26.9765 653.762C26.9811 655.654 25.544 657.303 23.9028 657.298C22.3544 657.293 20.7735 655.453 20.8291 653.716C20.7457 653.202 20.6576 652.684 20.5417 651.964C21.6497 652.726 22.5815 653.506 23.8286 653.534C25.1036 653.557 26.1049 652.898 27.148 652.128C27.3706 652.744 26.8096 653.225 26.9765 653.762H26.9765Z" fill="#FE733E"/>
  <path d="M15.2334 657.854C15.1407 657.821 15.0526 657.779 14.9645 657.746C13.7217 657.199 12.5768 656.45 11.5756 655.528C7.89458 652.324 5.46528 648.312 4.8765 643.445C4.20891 637.915 5.43746 632.81 9.09994 628.424C12.4425 624.426 16.703 622.095 21.7888 621.558C27.4401 620.965 32.5166 622.558 36.791 626.491C40.2806 629.612 42.4851 633.935 42.9708 638.611C43.4717 642.624 42.6456 646.692 40.6204 650.185C38.7335 653.431 36.2208 656.065 32.8226 657.732C32.7298 657.779 32.6371 657.826 32.5444 657.868C32.454 658.032 32.4047 658.215 32.4007 658.402C32.3966 658.589 32.438 658.775 32.5212 658.942V658.942C32.5938 658.864 32.6746 658.793 32.7623 658.732C37.8944 655.995 41.4549 651.927 43.1192 646.266C43.2629 645.785 43.4854 645.547 44.0186 645.603C44.7418 645.678 44.9365 645.192 44.9365 644.585C44.9411 642.254 44.9426 639.925 44.9411 637.597C44.9411 637.098 44.8206 636.546 44.306 636.49C43.3602 636.378 43.2443 635.682 43.0542 635.005C42.0079 631.145 39.7507 627.729 36.6194 625.267C30.0826 620.096 22.906 619.162 15.3771 622.656C9.78137 625.248 6.21626 629.746 4.60291 635.766C4.50091 636.14 4.54728 636.584 3.91678 636.453C3.01739 636.266 2.67896 636.799 2.67432 637.602C2.66041 639.933 2.6697 642.259 2.6697 644.589C2.6697 645.365 3.05913 645.776 3.8009 645.593C4.48239 645.425 4.64466 645.766 4.78374 646.289C5.38643 648.504 6.39427 650.585 7.75544 652.427C9.74894 655.15 12.1782 657.335 15.2658 658.727C15.2565 658.438 15.2473 658.144 15.2334 657.854L15.2334 657.854Z" fill="#B5D2F3"/>
  <path d="M15.2381 659.302C14.5519 661.24 12.7253 661.193 11.1722 661.679C12.3405 661.983 13.5274 662.333 14.6956 662.132C15.391 662.011 15.5255 662.263 15.6275 662.679C15.6368 662.711 15.6414 662.744 15.6507 662.777C15.6553 662.805 15.6646 662.838 15.6692 662.87C15.6233 661.671 15.4791 660.477 15.2381 659.302V659.302Z" fill="#FE684B"/>
  <path d="M32.3497 661.889C33.8332 662.567 35.2333 661.885 36.6658 661.689C35.2657 661.091 33.4531 661.399 32.7159 659.582C31.9324 660.245 32.5398 661.133 32.3497 661.889Z" fill="#FE6446"/>
  <path d="M21.0146 664.374C20.9914 664.5 20.9636 664.626 20.9404 664.752C20.9126 664.902 20.8801 665.051 20.8523 665.206C20.6142 666.254 20.5299 667.332 20.602 668.405C20.9497 668.587 20.6947 669.068 21.0146 669.264L21.0146 664.374Z" fill="#FED6C8"/>
  <path d="M18.2932 662.665C18.2098 664.145 18.1263 665.631 18.0429 667.111C18.1866 667.036 18.3303 666.966 18.474 666.892V662.665H18.2932Z" fill="#FEEBE3"/>
  <path d="M13.9353 672.912H16.3275C16.2858 672.884 16.2394 672.856 16.1977 672.823C16.0215 672.707 15.8454 672.59 15.6692 672.468C15.062 672.455 14.4626 672.608 13.9353 672.912V672.912Z" fill="#FE9166"/>
  <path d="M31.2834 672.912H33.6107C33.1848 672.599 32.6619 672.45 32.1364 672.492C31.9556 672.847 31.4735 672.585 31.2834 672.912Z" fill="#FE8F64"/>
  <path d="M32.8272 657.728C36.2254 656.065 38.7335 653.431 40.625 650.18C42.6502 646.687 43.4763 642.62 42.9755 638.606C42.4938 633.929 40.2886 629.604 36.7957 626.486C32.5212 622.558 27.4447 620.96 21.7934 621.558C16.7123 622.091 12.4472 624.426 9.10457 628.424C5.43746 632.81 4.21355 637.915 4.88114 643.445C5.46992 648.316 7.8992 652.324 11.5802 655.528C12.5817 656.449 13.7266 657.199 14.9692 657.746C15.0572 657.784 15.1453 657.821 15.2381 657.854C15.2628 656.629 15.19 655.405 15.0202 654.192C14.9274 654.127 14.8347 654.061 14.742 653.991C13.825 653.277 12.969 652.486 12.1829 651.628C11.9372 651.376 11.6312 651.161 11.6312 650.75C11.0842 651.147 10.6901 650.871 10.3702 650.432C8.57465 648.059 7.5295 645.196 7.3707 642.217C7.24089 639.517 7.48196 636.892 8.60852 634.365C9.98474 631.244 12.2881 628.63 15.201 626.883C15.7017 626.575 15.9891 626.85 16.3368 627.079C16.5018 627.072 16.6635 627.031 16.8113 626.957C16.9592 626.883 17.0897 626.778 17.1945 626.649L17.1527 626.551C16.856 625.921 16.8421 625.206 17.5561 625.038C18.2747 624.865 18.6826 625.454 18.6873 626.215C24.0512 624.44 29.0395 625.159 33.5411 628.62C36.9069 631.208 38.8355 634.678 39.4243 638.91C40.1846 644.351 38.358 648.863 34.5935 652.679C34.1492 653.138 33.6399 653.528 33.0822 653.837C32.9848 653.889 32.8875 653.935 32.7901 653.982C32.5902 655.265 32.5126 656.565 32.5583 657.863V657.863C32.6418 657.821 32.7298 657.775 32.8272 657.728Z" fill="#E2F5FC"/>
  <path d="M34.5843 652.684C38.3441 648.868 40.1707 644.356 39.415 638.914C38.8262 634.678 36.8976 631.208 33.5319 628.625C29.0303 625.164 24.0373 624.449 18.678 626.22C18.6687 626.224 18.6595 626.234 18.6502 626.238C18.2283 626.509 17.8991 627.093 17.2918 626.729C17.2547 626.705 17.2223 626.687 17.1852 626.659C17.0808 626.788 16.9503 626.893 16.8024 626.967C16.6545 627.041 16.4926 627.082 16.3275 627.088C16.3136 627.144 16.2951 627.196 16.2765 627.252C15.8917 628.34 14.7374 628.625 13.9631 629.279C11.8868 630.976 10.3056 633.208 9.38737 635.738C7.91311 639.877 8.21445 643.931 10.1894 647.845C10.5173 648.48 10.8972 649.086 11.3252 649.657C11.5585 649.968 11.6647 650.358 11.6219 650.745V650.759C11.6219 651.166 11.9279 651.385 12.1736 651.637C12.9608 652.494 13.8168 653.285 14.7327 654.001C14.8254 654.066 14.9182 654.136 15.0109 654.201C14.9413 652.343 14.8703 650.484 14.7976 648.625C14.793 648.625 14.793 648.62 14.7884 648.62C13.1843 647.56 12.0067 646.205 11.8027 644.188C11.5478 641.698 12.5862 639.858 14.6075 638.517C14.6168 638.513 14.6261 638.503 14.6354 638.499C14.5729 637.211 14.7897 635.925 15.2705 634.73C16.8143 630.689 21.4782 628.036 25.3214 629.008C25.3239 629.008 25.3265 629.008 25.3289 629.009C25.3313 629.01 25.3335 629.011 25.3353 629.013C27.8852 629.428 29.9807 630.601 31.4827 632.754C32.6947 634.411 33.2933 636.443 33.1749 638.499V638.499C34.6213 639.606 35.7896 640.904 35.9797 642.824C36.2347 645.407 35.1406 647.294 32.9848 648.611V648.634C32.9153 650.418 32.8411 652.202 32.7716 653.991C32.8736 653.945 32.9709 653.898 33.0636 653.846C33.6269 653.54 34.1399 653.148 34.5843 652.683L34.5843 652.684Z" fill="#CDECF6"/>
  <path d="M28.3395 638.289C29.9297 637.499 31.4735 637.924 33.008 638.433C33.0636 638.452 33.1239 638.471 33.1795 638.489C33.2993 636.434 32.7005 634.401 31.4874 632.745C29.9853 630.591 27.8898 629.419 25.34 629.003H25.3261C24.9459 629.078 24.5241 628.919 24.0558 629.19C27.1898 631.834 27.6209 635.225 27.0043 638.919C27.1017 638.872 27.1944 638.83 27.2918 638.784C27.6487 638.62 27.9964 638.461 28.3395 638.289Z" fill="#FE6B3C"/>
  <path d="M35.989 642.819C35.7989 640.899 34.6306 639.601 33.1842 638.494C33.1285 638.475 33.0683 638.457 33.0126 638.438C31.4735 637.929 29.9343 637.504 28.3442 638.293C28.0011 638.466 27.6487 638.63 27.301 638.793C27.2037 638.84 27.111 638.882 27.0136 638.928C26.7818 639.195 26.5686 639.484 26.3182 639.732C24.8161 641.208 24.6075 643.034 25.0062 644.968C25.6135 647.915 29.1833 650.367 32.9756 648.62C32.9802 648.615 32.9895 648.615 32.9941 648.611C35.1499 647.289 36.2486 645.397 35.989 642.819ZM30.3191 647.98C29.4493 647.971 28.6017 647.702 27.8837 647.207C27.1658 646.712 26.6097 646.014 26.286 645.2C25.9622 644.387 25.8854 643.495 26.0651 642.637C26.2448 641.78 26.6731 640.995 27.2956 640.383C27.9181 639.771 28.707 639.359 29.5622 639.199C30.4175 639.039 31.3007 639.138 32.1 639.484C32.8993 639.829 33.5787 640.406 34.0524 641.141C34.526 641.877 34.7724 642.737 34.7604 643.613C34.7641 644.197 34.6509 644.775 34.4277 645.314C34.2044 645.852 33.8757 646.34 33.4611 646.748C33.0465 647.155 32.5546 647.475 32.0147 647.686C31.4749 647.898 30.8982 647.998 30.3191 647.98Z" fill="#FE6142"/>
  <path d="M14.6122 638.508C12.5909 639.849 11.5524 641.689 11.8074 644.178C12.0114 646.196 13.1889 647.55 14.793 648.611C14.7976 648.611 14.7976 648.615 14.8023 648.615C15.7494 648.911 16.7359 649.06 17.7276 649.054C21.1861 649.003 23.7962 645.444 22.818 642.072C21.8769 638.835 18.4555 636.71 14.6493 638.489C14.636 638.494 14.6235 638.5 14.6122 638.508L14.6122 638.508ZM17.3753 647.98C16.7933 647.988 16.2156 647.879 15.6753 647.661C15.135 647.443 14.6429 647.12 14.2272 646.709C13.8114 646.299 13.4803 645.81 13.2529 645.27C13.0255 644.73 12.9062 644.151 12.9019 643.564C12.8976 642.978 13.0085 642.396 13.228 641.853C13.4475 641.31 13.7715 640.816 14.1811 640.4C14.5908 639.983 15.0782 639.653 15.6152 639.427C16.1523 639.2 16.7283 639.084 17.3104 639.083C17.8946 639.071 18.4753 639.177 19.0188 639.393C19.5623 639.61 20.0577 639.933 20.4764 640.343C20.8951 640.754 21.2287 641.244 21.4579 641.786C21.6871 642.328 21.8073 642.91 21.8116 643.498C21.8159 644.087 21.7042 644.671 21.4829 645.216C21.2617 645.761 20.9352 646.256 20.5226 646.673C20.1099 647.09 19.6193 647.42 19.079 647.644C18.5387 647.869 17.9596 647.983 17.3753 647.98V647.98Z" fill="#FE6143"/>
  <path d="M21.4133 654.127C21.2417 653.954 21.1166 653.72 20.8291 653.716C20.7735 655.453 22.3497 657.293 23.9028 657.298C25.5486 657.303 26.9812 655.654 26.9765 653.762C26.3553 654.085 25.9612 654.748 25.2473 654.944C23.824 655.336 22.5166 655.238 21.4133 654.127Z" fill="#070909"/>
  <path d="M27.148 652.128C26.1049 652.898 25.1082 653.557 23.8286 653.534C22.5769 653.51 21.6497 652.726 20.5417 651.964C20.6622 652.684 20.7457 653.197 20.8291 653.716C21.1166 653.725 21.2417 653.954 21.4133 654.127C22.512 655.238 23.824 655.336 25.2473 654.944C25.9612 654.748 26.3553 654.089 26.9765 653.762C26.8096 653.225 27.3706 652.744 27.148 652.128Z" fill="#FDFCFB"/>
  <path d="M20.1615 632.039C19.9993 632.027 19.8362 632.048 19.6823 632.101C19.5285 632.155 19.3872 632.239 19.2672 632.35C19.1472 632.461 19.0511 632.596 18.9849 632.745C18.9186 632.895 18.8836 633.057 18.882 633.221C18.8959 634.174 19.443 634.589 20.1708 634.58C20.497 634.577 20.8089 634.445 21.0395 634.213C21.2701 633.98 21.401 633.666 21.404 633.338C21.4179 632.609 21.0285 632.021 20.1615 632.039Z" fill="#FEA777"/>
  <path d="M11.6219 650.741C11.6647 650.353 11.5585 649.963 11.3252 649.652C10.8988 649.08 10.519 648.474 10.1894 647.84C8.21445 643.926 7.90847 639.872 9.38737 635.734C10.3056 633.204 11.8868 630.972 13.9631 629.274C14.7374 628.62 15.8917 628.34 16.2765 627.247C16.2963 627.194 16.3133 627.139 16.3275 627.084C15.9798 626.855 15.6924 626.579 15.1917 626.888C12.2788 628.634 9.97546 631.249 8.59924 634.37C7.47269 636.897 7.23161 639.522 7.36142 642.221C7.52317 645.2 8.56802 648.062 10.3609 650.437C10.6808 650.876 11.0795 651.152 11.6219 650.755L11.6219 650.741Z" fill="#FDFEFE"/>
  <path d="M18.6455 626.238C18.6548 626.234 18.6641 626.224 18.6734 626.22C18.6641 625.458 18.2608 624.87 17.5422 625.043C16.8282 625.215 16.8421 625.93 17.1388 626.556L17.1806 626.654C17.2146 626.68 17.2503 626.703 17.2872 626.724C17.8945 627.093 18.2237 626.505 18.6456 626.238L18.6455 626.238Z" fill="#FBFDFE"/>
  <path d="M34.7604 643.618C34.7765 643.034 34.6762 642.453 34.4656 641.909C34.2549 641.365 33.9382 640.87 33.5341 640.451C33.1299 640.033 32.6467 639.7 32.1128 639.473C31.5789 639.246 31.0052 639.129 30.4257 639.129C29.847 639.12 29.272 639.225 28.7339 639.44C28.1957 639.655 27.705 639.975 27.2898 640.381C26.8747 640.787 26.5433 641.272 26.3148 641.808C26.0862 642.344 25.9649 642.92 25.9579 643.503C25.9509 644.086 26.0582 644.665 26.2739 645.206C26.4895 645.747 26.8091 646.24 27.2143 646.657C27.6195 647.073 28.1024 647.405 28.6352 647.633C29.168 647.861 29.7403 647.98 30.3191 647.985C30.8979 648.002 31.4743 647.901 32.0138 647.689C32.5533 647.477 33.0449 647.158 33.4593 646.751C33.8738 646.343 34.2025 645.856 34.4261 645.317C34.6496 644.779 34.7633 644.201 34.7604 643.618V643.618ZM30.537 644.104C30.3592 644.121 30.1796 644.101 30.0101 644.044C29.8406 643.987 29.6849 643.895 29.5532 643.773C29.4215 643.652 29.3167 643.503 29.2458 643.338C29.1749 643.173 29.1393 642.994 29.1415 642.814C29.13 642.627 29.1573 642.439 29.2218 642.263C29.2862 642.086 29.3864 641.925 29.5159 641.79C29.6453 641.655 29.8013 641.548 29.9739 641.477C30.1465 641.405 30.332 641.371 30.5184 641.376C31.3344 641.437 31.7934 641.918 31.8907 642.777C31.7794 643.543 31.39 644.09 30.537 644.104Z" fill="#FEFEFE"/>
  <path d="M17.3104 639.087C16.7283 639.088 16.1523 639.205 15.6152 639.431C15.0782 639.657 14.5908 639.988 14.1811 640.405C13.7715 640.821 13.4475 641.315 13.228 641.858C13.0085 642.401 12.8976 642.983 12.9019 643.569C12.9062 644.155 13.0255 644.735 13.2529 645.275C13.4803 645.814 13.8114 646.304 14.2272 646.714C14.6429 647.124 15.135 647.448 15.6753 647.666C16.2156 647.884 16.7933 647.992 17.3753 647.985C17.9596 647.988 18.5387 647.873 19.079 647.649C19.6193 647.424 20.1099 647.094 20.5226 646.677C20.9352 646.26 21.2616 645.765 21.4829 645.22C21.7042 644.675 21.8159 644.092 21.8116 643.503C21.8073 642.914 21.6871 642.332 21.4579 641.791C21.2287 641.249 20.8951 640.759 20.4764 640.348C20.0577 639.937 19.5623 639.614 19.0188 639.398C18.4753 639.181 17.8946 639.076 17.3104 639.087V639.087ZM17.315 644.104C17.1367 644.12 16.957 644.098 16.7877 644.04C16.6183 643.982 16.4631 643.888 16.3322 643.765C16.2013 643.642 16.0978 643.492 16.0282 643.326C15.9587 643.16 15.9248 642.981 15.9288 642.8C15.9189 642.613 15.9482 642.425 16.0146 642.249C16.0811 642.073 16.1833 641.913 16.3147 641.779C16.4461 641.646 16.6038 641.541 16.7776 641.472C16.9515 641.404 17.1377 641.372 17.3243 641.381C17.6882 641.386 18.0353 641.536 18.2891 641.799C18.543 642.061 18.6829 642.415 18.678 642.782C18.576 643.571 18.1495 644.094 17.315 644.104Z" fill="#FEFEFE"/>
  <path d="M30.5185 641.376C30.3318 641.37 30.146 641.404 29.973 641.475C29.8001 641.546 29.6438 641.653 29.5141 641.788C29.3845 641.924 29.2844 642.085 29.2202 642.262C29.156 642.438 29.1293 642.627 29.1416 642.814C29.1389 642.995 29.1742 643.173 29.245 643.339C29.3158 643.504 29.4205 643.653 29.5523 643.774C29.6841 643.896 29.84 643.988 30.0097 644.045C30.1794 644.102 30.3591 644.122 30.537 644.104C31.3854 644.09 31.7795 643.543 31.8907 642.777C31.7934 641.918 31.3344 641.437 30.5185 641.376Z" fill="#090B0B"/>
  <path d="M17.3243 641.381C17.1377 641.372 16.9515 641.404 16.7776 641.472C16.6038 641.541 16.4461 641.646 16.3147 641.779C16.1833 641.913 16.0811 642.073 16.0146 642.249C15.9482 642.425 15.919 642.613 15.9288 642.8C15.9248 642.981 15.9587 643.16 16.0282 643.326C16.0978 643.492 16.2014 643.642 16.3322 643.765C16.4631 643.888 16.6183 643.982 16.7877 644.04C16.957 644.098 17.1367 644.12 17.315 644.104C18.1495 644.094 18.576 643.571 18.678 642.782C18.5992 641.918 18.1263 641.446 17.3243 641.381Z" fill="#090C0C"/>
</svg>