<?xml version="1.0" encoding="utf-8"?>
<!-- Generator: Adobe Illustrator 26.0.3, SVG Export Plug-In . SVG Version: 6.00 Build 0)  -->
<svg version="1.0" id="Layer_1" xmlns="http://www.w3.org/2000/svg" xmlns:xlink="http://www.w3.org/1999/xlink" x="0px" y="0px"
	 viewBox="0 0 1165.5 835.8" style="enable-background:new 0 0 1165.5 835.8;" xml:space="preserve">
<style type="text/css">
	.st0{fill:#010101;}
</style>
<circle class="st0" cx="579.8" cy="312.2" r="46"/>
<path class="st0" d="M579.7,119.6c-87.8,0-164.5,59.4-186.6,144.3c-0.2,0.7-0.3,1.5-0.2,2.2c0.1,5,4.2,9.1,9.2,9.2h77.8
	c3.6,0,6.9-2.1,8.2-5.5c0-0.1,0.1-0.2,0.2-0.2c0,0,0,0,0,0c23.4-50.5,83.3-72.5,133.8-49.1c50.5,23.4,72.5,83.3,49.1,133.8
	s-83.3,72.5-133.8,49.1c-21.6-10-39-27.4-49.1-49.1l-0.2-0.2c-1.5-3.2-4.6-5.4-8.2-5.5h-77.8c-5,0.1-9.1,4.1-9.2,9.2
	c0,0.8,0.2,1.5,0.2,2.2c22.1,85,98.8,144.3,186.6,144.3c106.3,0,192.5-86.2,192.5-192.5c0.1-106.1-85.9-192.2-192.1-192.3
	C580.1,119.6,579.9,119.6,579.7,119.6z"/>
<path class="st0" d="M287.1,610.1c14.6,0,28.3,7.3,36.5,19.4c0.5,0.7,1.3,1.2,2.2,1.2h13.7c1.6,0.1,2.9-1.2,3-2.8c0-0.1,0-0.2,0-0.2
	c0.1-0.4,0-0.9-0.2-1.2c-15.4-30.5-52.6-42.8-83.1-27.4c-30.5,15.4-42.8,52.6-27.4,83.1s52.6,42.8,83.1,27.4
	c11.9-6,21.5-15.6,27.4-27.4c0.2-0.4,0.3-0.8,0.2-1.2c0.1-1.6-1.2-2.9-2.7-3c-0.1,0-0.2,0-0.3,0h-13.7c-0.9,0-1.8,0.5-2.2,1.2
	c-13.7,20.2-41.2,25.4-61.4,11.7s-25.4-41.2-11.7-61.4C258.8,617.3,272.5,610,287.1,610.1L287.1,610.1z"/>
<circle class="st0" cx="369.1" cy="571.8" r="11.7"/>
<path class="st0" d="M360.4,710.2c-0.1,1.6,1.2,2.9,2.7,3c0.1,0,0.2,0,0.3,0h11.7c1.6,0.1,2.9-1.2,3-2.7c0-0.1,0-0.2,0-0.3l0,0
	V595.4h-17.7V710.2z"/>
<path class="st0" d="M457.5,607.1v-11.7c0-1.7-1.3-3-3-3c-16.5,0.5-31.8,8.8-41.2,22.4v-16.6c0.1-1.6-1.2-2.9-2.7-3
	c-0.1,0-0.2,0-0.3,0h-11.6c-1.6-0.1-2.9,1.2-3,2.7c0,0.1,0,0.2,0,0.3v111.8c-0.1,1.6,1.2,2.9,2.7,3c0.1,0,0.2,0,0.3,0h11.7
	c1.6,0.1,2.9-1.2,3-2.7c0-0.1,0-0.2,0-0.3l0,0V654c0-23.3,18-42.5,41.2-44C456.2,610,457.6,608.6,457.5,607.1L457.5,607.1z"/>
<path class="st0" d="M519.4,610.1c14.6,0,28.3,7.3,36.5,19.4c0.5,0.7,1.3,1.2,2.2,1.2h13.7c1.6,0.1,2.9-1.2,3-2.8c0-0.1,0-0.2,0-0.2
	c0.1-0.4,0-0.9-0.2-1.2c-15.4-30.5-52.6-42.8-83.1-27.4c-30.5,15.4-42.8,52.6-27.4,83.1c15.4,30.5,52.6,42.8,83.1,27.4
	c11.9-6,21.5-15.6,27.4-27.4c0.2-0.4,0.3-0.8,0.2-1.2c0.1-1.6-1.2-2.9-2.7-3c-0.1,0-0.2,0-0.3,0h-13.7c-0.9,0-1.8,0.5-2.2,1.2
	c-13.7,20.2-41.2,25.4-61.4,11.7s-25.4-41.2-11.7-61.4C491.1,617.3,504.8,610,519.4,610.1L519.4,610.1z"/>
<path class="st0" d="M607.3,556.9h-11.7c-1.6-0.1-2.9,1.2-3,2.7c0,0.1,0,0.2,0,0.3v150c-0.1,1.6,1.2,2.9,2.7,3c0.1,0,0.2,0,0.3,0
	h11.7c1.6,0.1,2.9-1.2,3-2.7c0-0.1,0-0.2,0-0.3v-150C610.1,558.4,608.8,556.9,607.3,556.9z"/>
<path class="st0" d="M689.6,592.4c-34.2,0-61.9,27.6-61.9,61.8c0,34.2,27.6,61.9,61.8,61.9c23.4,0,44.8-13.1,55.3-34
	c0.8-1.4,0.3-3.1-1.1-3.9c0,0-0.1-0.1-0.1-0.1c-0.5-0.2-1-0.3-1.5-0.2h-13.7c-1,0-1.9,0.5-2.5,1.2c-13.7,20.2-41.1,25.5-61.3,11.8
	c-10.4-7.1-17.3-18.2-19-30.7h102.6c1.5-0.1,2.8-1.2,3-2.7v-3c0.4-33.9-26.8-61.7-60.7-62.1C690.2,592.4,689.9,592.4,689.6,592.4z
	 M647.1,642.3c6.5-23.5,30.8-37.2,54.2-30.8c15,4.1,26.6,15.8,30.8,30.8H647.1z"/>
<path class="st0" d="M922.6,589.4c9.7,0,17.6-7.9,17.6-17.6c0-9.7-7.9-17.6-17.6-17.6c-9.7,0-17.6,7.9-17.6,17.6
	C905,581.5,912.9,589.4,922.6,589.4z"/>
<path class="st0" d="M907.9,710.2L907.9,710.2c-0.1,1.6,1.2,2.9,2.8,3c0.1,0,0.2,0,0.2,0h23.6c1.6,0.1,2.9-1.2,3-2.7
	c0-0.1,0-0.2,0-0.3V595.4h-29.6V710.2z"/>
<path class="st0" d="M830.9,621.7c12.6,0,24.1,7.4,29.3,18.9l0,0c0.5,1.1,1.6,1.7,2.7,1.7h24.8c1.6,0.1,2.9-1.2,3-2.7
	c0-0.1,0-0.2,0-0.3v-0.5c-8.5-33.1-42.2-53-75.3-44.5c-33.1,8.5-53,42.2-44.5,75.3s42.2,53,75.3,44.5c21.8-5.6,38.9-22.7,44.5-44.5
	v-0.5c0.1-1.6-1.2-2.9-2.7-3c-0.1,0-0.2,0-0.3,0H863c-1.2,0-2.2,0.7-2.7,1.7l0,0c-7.4,16.2-26.5,23.4-42.7,16
	c-11.5-5.2-18.9-16.7-18.9-29.4C798.6,636.1,813,621.7,830.9,621.7z"/>
</svg>
