<?xml version="1.0" encoding="utf-8"?>
<svg viewBox="3.629 4.641 29.213 32.474" width="29.213" height="32.474" xmlns="http://www.w3.org/2000/svg">
  <path d="M 26.109 4.641 L 5.429 4.641 C 4.435 4.641 3.629 5.447 3.629 6.441 L 3.629 30.351 C 3.629 31.345 4.435 32.151 5.429 32.151 L 26.109 32.151 C 27.103 32.151 27.909 31.345 27.909 30.351 L 27.909 6.441 C 27.909 5.447 27.103 4.641 26.109 4.641 Z" fill="#3F60A8" fill-opacity="0.4"/>
  <path d="M 29.109 7.641 L 8.429 7.641 C 7.435 7.641 6.629 8.447 6.629 9.441 L 6.629 33.351 C 6.629 34.345 7.435 35.151 8.429 35.151 L 29.109 35.151 C 30.103 35.151 30.909 34.345 30.909 33.351 L 30.909 9.441 C 30.909 8.447 30.103 7.641 29.109 7.641 Z" fill="#3F60A8" fill-opacity="0.4"/>
  <path d="M 11.312 10.641 L 31.042 10.641 C 32.036 10.641 32.842 11.447 32.842 12.441 L 32.842 35.315 C 32.842 36.31 32.036 37.115 31.042 37.115 L 11.312 37.115 C 10.318 37.115 9.512 36.31 9.512 35.315 L 9.512 12.441 C 9.512 11.447 10.318 10.641 11.312 10.641 Z" fill="#3E5FA8"/>
  <path d="M 15.852 16.361 L 15.852 30.641 L 17.752 30.641 L 17.752 25.641 L 20.132 23.421 L 25.292 30.641 L 27.692 30.641 L 21.432 22.121 L 27.452 16.361 L 24.992 16.361 L 17.752 23.481 L 17.752 16.361 L 15.852 16.361 Z" fill="white"/>
</svg>