<svg xmlns="http://www.w3.org/2000/svg" fill="none" baseProfile="tiny-ps" version="1.2" viewBox="0 0 150 150">
  <title>Phrase a.s.</title>
  
  <path fill="#181818" d="M29.6443 59.0054H15.7842c.3503.0109.7116.12 1.0291.36l3.7989 2.9131h9.0321c1.6313 0 2.956 1.3201 2.956 2.9458v12.765c0 1.6257-1.3247 2.9458-2.956 2.9458h-2.6275c-.2408 0-.4379.1964-.4379.4365v2.4002c0 .2401.1971.4364.4379.4364h2.6275c3.4486 0 6.2404-2.7821 6.2404-6.2189v-12.765c0-3.4368-2.7918-6.2189-6.2404-6.2189Z"/>
  <path fill="#03EAB3" d="m22.1234 90.6346-6.7549-5.1715C14.5036 84.7976 14 83.7829 14 82.6919V60.7512c0-1.4511 1.6641-2.2693 2.8136-1.3856l6.7549 5.1715c.8649.6655 1.3685 1.6802 1.3685 2.7712V89.249c0 1.4511-1.6641 2.2694-2.8136 1.3856Z"/>
  <path fill="#181818" d="M72.9002 68.4966c-2.0484 0-3.8691.6219-4.8566 1.9835v-7.7649c0-.2411-.1959-.4364-.4379-.4364h-2.2991c-.2419 0-.4379.1953-.4379.4364v21.057c0 .2411.196.4364.4379.4364h2.2991c.242 0 .4379-.1953.4379-.4364v-7.6776c0-2.7178 1.7462-4.5191 4.0782-4.5191 2.0943 0 3.6982 1.282 3.6982 3.8372v8.3605c0 .2412.196.4365.4379.4365h2.2991c.2419 0 .4379-.1953.4379-.4365v-8.6835c0-2.9283-1.5874-6.592-6.0947-6.592v-.0011Zm-16.1089-6.2178h-9.5204c-.2419 0-.4379.1953-.4379.4364v21.057c0 .2411.196.4364.4379.4364h2.4086c.2419 0 .4379-.1953.4379-.4364v-7.2718h6.6739c3.2702 0 5.9207-2.6414 5.9207-5.9003v-2.421c0-3.2589-2.6505-5.9003-5.9207-5.9003Zm2.7458 8.3213c0 1.5089-1.2317 2.7363-2.7458 2.7363h-6.6739v-7.8936h6.6739c1.5141 0 2.7458 1.2274 2.7458 2.7363v2.421Zm51.3959 2.4254c0-.8565.846-1.6322 2.415-1.6322 1.568 0 2.608.6633 3.09 1.0387.173.1352.422.1167.577-.0382l1.486-1.4871c.18-.1811.168-.4779-.029-.6415-.705-.5859-2.469-1.7686-5.207-1.7686-3.639 0-5.55 2.349-5.55 4.5638 0 5.309 8.191 4.1819 8.191 6.6782 0 1.4445-1.448 1.941-2.729 1.941-1.703 0-3.112-1.1958-3.705-1.7883-.173-.1723-.452-.1723-.623 0l-1.482 1.5013c-.164.1658-.17.4299-.011.6001.689.7441 2.686 2.5486 5.824 2.5486 3.952 0 5.957-2.4101 5.957-4.8878 0-5.2893-8.202-4.1328-8.202-6.6302l-.002.0022Zm17.556-4.5289c-4.446 0-7.997 3.4488-7.997 8.0235s3.604 8.0234 8.051 8.0234c2.549 0 4.769-.9699 6.292-2.541.165-.1713.16-.4451-.01-.6121l-1.491-1.4674c-.164-.1615-.427-.1724-.598-.0186-1.109.9994-2.646 1.5766-4.097 1.5766-2.353 0-4.306-1.594-4.826-3.8252h11.603c.231 0 .421-.1789.437-.408.017-.2291.025-.4833.039-.7288.254-4.4285-2.956-8.0235-7.403-8.0235v.0011Zm-4.647 6.5582c.518-2.1166 2.202-3.6048 4.475-3.6048 2.272 0 3.761 1.4882 4.258 3.6048h-8.734.001Zm-42.7889-.0578v8.7752c0 .2411.196.4364.4379.4364h2.2991c.242 0 .4379-.1953.4379-.4364V74.997c0-1.8428 1.4988-3.3364 3.3479-3.3364h.6197c.242 0 .4379-.1953.4379-.4364V68.933c0-.2411-.1959-.4364-.4379-.4364h-.6197c-3.6018 0-6.5228 2.9098-6.5228 6.5004Zm21.1859-4.6195c-1.328-1.1739-3.033-1.882-4.8767-1.882-4.4459 0-8.0511 3.5917-8.0511 8.0235 0 4.4317 3.6041 8.0234 8.0511 8.0234 1.8426 0 3.5487-.7081 4.8767-1.882v1.1107c0 .2411.196.4364.438.4364h2.299c.242 0 .437-.1953.437-.4364V69.2669c0-.2411-.195-.4364-.437-.4364h-2.299c-.242 0-.438.1953-.438.4364v1.1106Zm-4.8767 11.0009c-2.6932 0-4.8762-2.1755-4.8762-4.8594 0-2.684 2.183-4.8595 4.8762-4.8595 2.6937 0 4.8767 2.1755 4.8767 4.8595 0 2.6839-2.183 4.8594-4.8767 4.8594Z"/>
</svg>
