<?xml version="1.0" encoding="UTF-8"?>
<svg width="138px" height="31px" viewBox="0 0 138 31" version="1.1" xmlns="http://www.w3.org/2000/svg" xmlns:xlink="http://www.w3.org/1999/xlink">
    <!-- Generator: Sketch 57.1 (83088) - https://sketch.com -->
    <title>flow-logo-text</title>
    <desc>Created with Sketch.</desc>
    <defs>
        <polygon id="path-1" points="0.494096327 0.318157895 46.8484653 0.318157895 46.8484653 31 0.494096327 31"></polygon>
        <polygon id="path-3" points="0 0.468752632 18.3272449 0.468752632 18.3272449 29.4548404 0 29.4548404"></polygon>
    </defs>
    <g id="Redesign_blau" stroke="none" stroke-width="1" fill="none" fill-rule="evenodd">
        <g id="Login-Copy" transform="translate(-652.000000, -322.000000)">
            <g id="Group" transform="translate(534.000000, 322.000000)">
                <g id="flow-logo-text" transform="translate(117.500000, 0.000000)">
                    <polygon id="Fill-1" fill="#ffffff" points="46.5 30 29.5 30 29.5 1 32.9957154 1 32.9957154 26.8876297 46.5 26.8876297"></polygon>
                    <g id="Group-10" transform="translate(0.500000, 0.000000)">
                        <g id="Group-4" transform="translate(90.685714, 0.000000)">
                            <mask id="mask-2" fill="white">
                                <use xlink:href="#path-1"></use>
                            </mask>
                            <g id="Clip-3"></g>
                            <path d="M37.94448,31 C36.2045535,31 34.7338678,30.6970702 33.5735412,30.0993684 C32.4205371,29.504386 31.4911494,28.7380877 30.812978,27.8205965 C30.1432555,26.915614 29.672929,25.9143684 29.41608,24.8456842 C29.1671167,23.8101754 29.040382,22.816 29.040382,21.8914386 L29.0392555,9.66764912 C29.0392555,8.85947368 28.9412473,8.06435088 28.7469208,7.30457895 C28.5599167,6.57363158 28.2535004,5.91610526 27.8349943,5.35103509 C27.42888,4.80173684 26.8808229,4.34870175 26.2049045,4.00552632 C25.5334922,3.66398246 24.6807086,3.49049123 23.6702106,3.49049123 C22.6602759,3.49049123 21.8074922,3.66398246 21.1355167,4.00552632 C20.4601616,4.34924561 19.9121045,4.80173684 19.5059902,5.35103509 C19.0886106,5.91501754 18.781631,6.572 18.5946269,7.30457895 C18.3997371,8.06707018 18.3011657,8.86219298 18.3011657,9.66764912 L18.301729,21.8914386 C18.301729,22.816 18.1755576,23.8101754 17.9265943,24.8456842 C17.669182,25.9143684 17.1994188,26.915614 16.5296963,27.8205965 C15.8509616,28.7380877 14.9221371,29.504386 13.7685698,30.0988246 C12.6088065,30.6970702 11.1381208,31 9.39763102,31 C7.63573714,31 6.15941878,30.6965263 5.00923102,30.0982807 C3.86749224,29.5038421 2.94486367,28.7375439 2.26612898,27.8205965 C1.59584327,26.9145263 1.12551673,25.9132807 0.86923102,24.8456842 C0.620267755,23.811807 0.494096327,22.8181754 0.494096327,21.8914386 L0.494096327,1.05998246 L4.02858612,1.05998246 L4.02858612,21.6505088 C4.02858612,22.4581404 4.12715755,23.2532632 4.32148408,24.0141228 C4.50848816,24.7450702 4.81490449,25.4020526 5.23284735,25.9671228 C5.63896163,26.5164211 6.18758204,26.9694561 6.86293714,27.3131754 C7.53434939,27.6547193 8.38713306,27.8276667 9.39763102,27.8276667 C10.408129,27.8276667 11.2609127,27.6541754 11.9328882,27.3126316 C12.60768,26.9694561 13.1563004,26.5164211 13.5624147,25.9671228 C13.9797943,25.4025965 14.2867739,24.745614 14.473778,24.0135789 C14.6686678,23.2521754 14.7672392,22.4570526 14.7672392,21.6505088 L14.7666759,9.4267193 C14.7666759,8.50215789 14.8928473,7.50798246 15.1418106,6.47247368 C15.3992229,5.40378947 15.8689861,4.40254386 16.5387086,3.49810526 C17.2174433,2.58007018 18.1462678,1.81377193 19.2992718,1.21933333 C20.4595984,0.621631579 21.9302841,0.318157895 23.6702106,0.318157895 C25.4326678,0.318157895 26.9089861,0.621631579 28.0591739,1.22042105 C29.2014759,1.81485965 30.1241045,2.58115789 30.8022759,3.49810526 C31.4725616,4.40363158 31.9423249,5.40487719 32.1991739,6.47247368 C32.4481371,7.50635088 32.5743086,8.49998246 32.5743086,9.4267193 L32.5754351,21.6505088 C32.5754351,22.4570526 32.6740065,23.2521754 32.8683331,24.0135789 C33.0559004,24.745614 33.3623167,25.4025965 33.7796963,25.9671228 C34.1863739,26.5164211 34.734431,26.9694561 35.4097861,27.3126316 C36.0811984,27.6541754 36.933982,27.8276667 37.94448,27.8276667 C38.954978,27.8276667 39.8077616,27.6547193 40.4791739,27.3131754 C41.1550922,26.9694561 41.7031494,26.5164211 42.1092637,25.9671228 C42.5272065,25.4020526 42.8336229,24.7450702 43.0206269,24.0141228 C43.2149535,23.2532632 43.3135249,22.4581404 43.3135249,21.6505088 L43.3135249,1.05998246 L46.848578,1.05998246 L46.848578,21.8914386 C46.848578,22.8181754 46.7218433,23.811807 46.47288,24.8456842 C46.2165943,25.9132807 45.746831,26.9145263 45.075982,27.8205965 C44.3978106,28.7375439 43.4746188,29.5038421 42.3334433,30.0982807 C41.1832555,30.6965263 39.7063739,31 37.94448,31" id="Fill-2" fill="#ffffff" mask="url(#mask-2)"></path>
                        </g>
                        <g id="Group-7" transform="translate(0.000000, 0.543860)">
                            <mask id="mask-4" fill="white">
                                <use xlink:href="#path-3"></use>
                            </mask>
                            <g id="Clip-6"></g>
                            <polygon id="Fill-5" fill="#ffffff" mask="url(#mask-4)" points="3.55504898 29.4548404 -0.000281632653 29.4548404 -0.000281632653 0.468752632 18.3272449 0.468752632 18.3272449 3.57962982 3.55504898 3.57962982 3.55504898 12.9236825 17.2868939 12.9236825 17.2868939 15.9948579 3.55504898 15.9948579"></polygon>
                        </g>
                        <path d="M66.3632424,3.36007368 C64.5269976,3.36007368 62.85072,3.68965263 61.3817241,4.34010877 C59.9121649,4.99110877 58.6476343,5.88140702 57.6247445,6.98652982 C56.5996016,8.09382807 55.8059608,9.39582807 55.2663527,10.8550035 C54.7244914,12.317986 54.4501812,13.8826702 54.4501812,15.5055474 C54.4501812,17.1289684 54.7244914,18.6936526 55.2663527,20.1560912 C55.8053976,21.6152667 56.5984751,22.9096526 57.623618,24.0033544 C58.6476343,25.0965123 59.9121649,25.9802842 61.3817241,26.6307404 C62.8495935,27.2811965 64.5253078,27.6107754 66.3632424,27.6107754 C68.2000506,27.6107754 69.8763282,27.2811965 71.3441976,26.6307404 C72.8131935,25.9808281 74.0777241,25.0965123 75.1028669,24.0033544 C76.1268833,22.9101965 76.9199608,21.6158105 77.4601322,20.1560912 C78.0019935,18.6920211 78.2763037,17.1273368 78.2763037,15.5055474 C78.2763037,13.8843018 78.0019935,12.3196175 77.4601322,10.8550035 C76.9199608,9.39528421 76.12632,8.09382807 75.1017404,6.98652982 C74.0777241,5.88140702 72.8131935,4.99110877 71.3441976,4.34010877 C69.8746384,3.68965263 68.1989241,3.36007368 66.3632424,3.36007368 M66.3632424,30.7221965 C64.1462302,30.7221965 62.0593322,30.3366 60.1600016,29.5762842 C58.2629241,28.8170561 56.5945322,27.7494596 55.2004506,26.4039509 C53.8069322,25.0578982 52.7012424,23.4399158 51.9149241,21.5951439 C51.1280424,19.7498281 50.7286873,17.7011088 50.7286873,15.5055474 C50.7286873,13.3105298 51.1280424,11.2618105 51.9149241,9.41595088 C52.7018057,7.57063509 53.8069322,5.95265263 55.2004506,4.60714386 C56.5934057,3.26272281 58.2617976,2.19512632 60.1600016,1.43481053 C62.058769,0.674494737 64.1456669,0.289442105 66.3632424,0.289442105 C68.580818,0.289442105 70.6677159,0.674494737 72.5664833,1.43481053 C74.4646873,2.19512632 76.1330792,3.26272281 77.5260343,4.60714386 C78.9178629,5.95102105 80.0235527,7.56954737 80.8115608,9.41595088 C81.5984424,11.2634421 81.9977976,13.3121614 81.9977976,15.5055474 C81.9977976,17.6994772 81.5984424,19.7481965 80.8115608,21.5951439 C80.0241159,23.4410035 78.9184261,25.058986 77.5260343,26.4039509 C76.1319527,27.7494596 74.4635608,28.8170561 72.5664833,29.5762842 C70.6671527,30.3366 68.5802547,30.7221965 66.3632424,30.7221965" id="Fill-8" fill="#ffffff"></path>
                    </g>
                </g>
            </g>
        </g>
    </g>
</svg>
