<svg height="285" preserveAspectRatio="xMidYMid" viewBox="0 0 256 285" width="256" xmlns="http://www.w3.org/2000/svg"><path d="m230.4 0c13.99552 0 25.37047 11.2315104 25.59657 25.1765997l.00343.4234003v233.244444c0 13.99552-11.234995 25.370471-25.176704 25.59657l-.423296.00343h-204.8c-13.99552 0-25.3704704-11.234995-25.59656986-25.176704l-.00343014-.423296v-233.244444c0-13.99904 11.2349952-25.3705408 25.1767043-25.59657091l.4232957-.00342909zm0 14.2222222h-204.8c-6.174 0-11.2179375 4.9474688-11.3740532 11.084647l-.0037246.2931308v233.244444c0 6.174 4.9474688 11.217938 11.084647 11.374054l.2931308.003724h204.8c6.1775 0 11.218047-4.947469 11.374056-11.084647l.003722-.293131v-233.244444c0-6.272-5.102222-11.3777778-11.377778-11.3777778zm-166.4 170.6666668 32 28.444444-32 28.444445zm28.4444444-142.2222223v80.7502223c14.2008886-4.622222 34.0515556-9.639111 53.3333336-9.639111 17.582222 0 28.106666 6.912 33.838222 12.711111 12.1088 12.2496 12.397158 27.820214 12.381015 29.896777l-.000571.058778.003556 85.333334h-28.444444v-84.942222c-.138667-6.638223-3.338667-14.613334-17.777778-14.613334-28.63168 0-60.7133122 14.256317-61.6660273 14.682891l-.0193063.008665-20.0924444 9.102222v-123.3493333zm99.5555556 0c-1.92 16.1564444-8.469333 31.6444444-21.333333 46.2222222h-28.444445c11.178667-14.6666667 18.197334-30.1013333 21.333334-46.2222222z" fill="#430098"/></svg>