<svg fill="none" height="32" viewBox="0 0 32 32" width="32" xmlns="http://www.w3.org/2000/svg" xmlns:xlink="http://www.w3.org/1999/xlink"><linearGradient id="a"><stop offset=".18" stop-color="#0052cc"/><stop offset="1" stop-color="#2684ff"/></linearGradient><linearGradient id="b" gradientUnits="userSpaceOnUse" x1="15.2357" x2="8.09646" xlink:href="#a" y1="7.67312" y2="10.7902"/><linearGradient id="c" gradientUnits="userSpaceOnUse" x1="16.8177" x2="23.9441" xlink:href="#a" y1="24.2786" y2="21.1836"/><path d="m29.6647 15.2165-12.4572-12.0486-1.2075-1.1679-9.37731 9.0697-4.28743 4.1468c-.44701.4329-.44701 1.1341 0 1.567l8.56724 8.2862 5.0975 4.9303 9.3773-9.0697.1452-.1404 4.1422-4.0064c.4471-.4329.4471-1.1341 0-1.567zm-13.6647 4.9229-4.2798-4.1394 4.2798-4.1394 4.2798 4.1394z" fill="#2684ff"/><g clip-rule="evenodd" fill-rule="evenodd"><path d="m15.9999 11.8606c-2.802-2.71053-2.8157-7.10066-.0305-9.8274l-9.36588 9.0549 5.09748 4.9303z" fill="url(#b)"/><path d="m20.2912 15.9888-4.2912 4.1504c1.3525 1.3074 2.1124 3.081 2.1124 4.9303 0 1.8494-.7599 3.623-2.1124 4.9304l9.3888-9.0808z" fill="url(#c)"/></g></svg>