<svg height="512" width="512" xmlns="http://www.w3.org/2000/svg"><path d="m255.687088 301.5982971-64.9391937-101.5078583-.0978088 85.2877655-111.9169236-188.4196014h-78.7331619v318.0828247h78.107048v-188.184845l110.7625198 179.7518768zm-64.9196167-122.8738098h77.930954v-81.7658844h-77.8526917zm234.2624359 106.9471741c-22.7422485-29.8593445-65.5959778-22.7992554-78.3418274 9.7438354 32.40271-38.776886 58.4298401-2.9212951 78.3418274-9.7438354zm8.4328919 4.1675415c3.687439 6.0845337 10.9595642 8.9901733 17.8245544 7.1220093 10.506897-2.2500916 9.7829285 7.6893921 25.6508789 11.054718.5144043-12.4920349-3.6288147-13.7788391-15.9657593-18.4897766-12.3833923-3.7799683-21.7581177-9.2812805-27.3922424-20.1724243-18.4518738-35.3750916-74.1463013-21.5424805-85.4833984 12.2091064 22.2575683-29.8156738 67.8505554-27.6315765 85.3659668 8.2763672zm-132.1480408-52.3778992-32.8120117-51.5756989-77.7352753-.0000305 73.8612518 115.6735992-72.0807495 113.4822388h75.5047913l32.8511047-50.4604797 33.4381409 50.4604797h75.5243225l-68.4806213-107.7689819c-6.8147888-11.100708 4.5601807-42.3594055 23.7814636-54.6379852 22.721405-14.5144196 59.2435913-15.8346863 75.6915588 18.3236847 13.5200195 17.609314 40.5209656 9.9003296 40.5209656 32.870697 1.0705566 20.1861877 30.2396545 19.5564575 30.190155-.9000244-1.7973632-117.2732849-147.2217102-159.3626404-210.2550964-65.4674988zm196.6567993 104.3449402s-6.1828003-3.0131531-2.4261475-8.7850952c4.167511-6.4371948 12.4047546-5.6936951 16.1027222-13.6374207 1.9440918 10.9174805-4.3825989 26.2729492-13.6765747 22.4225159z"/></svg>