<svg xmlns="http://www.w3.org/2000/svg" viewBox="0 0 175 140"><path d="M109 29c1.2 0 2.2 3 2.2 6.7v1.8H149a7 7 0 0 1 7 6.7v35c0 3.8-3.1 6.8-6.8 6.8h-18.1c-3.7 0-6.8-3-6.8-6.7V65.5a6.7 6.7 0 0 0-2.7 5.4v11.5c0 3.7 3.1 6.8 6.8 6.8h11.8V107c0 2.3-1.9 4.1-4.2 4.1h-22.2a4.1 4.1 0 0 1-4.1-4.1V90.4a4 4 0 0 0-4.1-4.1H50.2a4.1 4.1 0 0 0-4.2 4v16.8a4 4 0 0 1-4.1 4.1H19.7a4.1 4.1 0 0 1-4.1-4.1V59l-10 8c-.5.2-1.1.2-1.5-.2l-2.9-3.4a1 1 0 0 1 0-1.2l14.7-22.4a4 4 0 0 1 3.7-2.5h78.2a4 4 0 0 1 4 4.8l-1.5 9.6a4.2 4.2 0 0 0 4 4.8H120a4 4 0 0 0 4-3.3c-1 .3-2 .4-3.1.4h-11.2c-3.8 0-6.3-3-5.7-6.6l2-11.4c.6-3.7 2-6.7 3-6.7zm61.9 0c1 0 2.5 3 3 6.7l2 11.4c.6 3.6-2 6.5-5.6 6.5h-11.8v-8.1h3.6c3.6 0 6.7-3.1 6.7-6.8v-3c0-3.6 1-6.7 2-6.7z"/></svg>