<svg viewBox="0 0 128 128" xmlns="http://www.w3.org/2000/svg"><path d="m117.29 98.1-51.05 28.9v-22.51l31.76-17.49zm3.5-3.16v-60.39l-18.68 10.8v38.81l18.67 10.77zm-110.08 3.16 51 28.88v-22.49l-31.77-17.49zm-3.5-3.16v-60.39l18.68 10.8v38.81zm2.19-64.3 52.36-29.64v21.76l-33.55 18.45-.27.15zm109.18 0-52.34-29.64v21.76l33.55 18.44.27.15 18.54-10.71z" fill="#8ed6fb"/><path d="m61.76 99.37-31.39-17.27v-34.18l31.39 18.08zm4.48 0 31.39-17.25v-34.2l-31.39 18.08zm-33.74-55.37 31.5-17.34 31.5 17.34-31.5 18.16z" fill="#1c78c0"/></svg>